<svg xmlns="http://www.w3.org/2000/svg" version="1.1" xmlns:xlink="http://www.w3.org/1999/xlink" xmlns:svgjs="http://svgjs.dev/svgjs" width="2000" height="2024" viewBox="0 0 2000 2024"><g transform="matrix(1,0,0,1,1.7678688524587187,0.8194331983804659)"><svg viewBox="0 0 244 247" data-background-color="#ffffff" preserveAspectRatio="xMidYMid meet" height="2024" width="2000" xmlns="http://www.w3.org/2000/svg" xmlns:xlink="http://www.w3.org/1999/xlink"><g id="tight-bounds" transform="matrix(1,0,0,1,-0.21567999999996346,-0.09999999999999432)"><svg viewBox="0 0 244.43135999999996 247.2" height="247.2" width="244.43135999999996"><g><svg></svg></g><g><svg viewBox="0 0 244.43135999999996 247.2" height="247.2" width="244.43135999999996"><g transform="matrix(1,0,0,1,0,64.69189310555217)"><svg viewBox="0 0 244.43135999999996 117.81621378889565" height="117.81621378889565" width="244.43135999999996"><g><svg viewBox="0 0 244.43135999999996 117.81621378889565" height="117.81621378889565" width="244.43135999999996"><g><svg viewBox="0 0 244.43135999999996 117.81621378889565" height="117.81621378889565" width="244.43135999999996"><g><svg viewBox="0 0 244.43135999999996 117.81621378889565" height="117.81621378889565" width="244.43135999999996"><g><svg viewBox="0 0 244.43135999999996 117.81621378889565" height="117.81621378889565" width="244.43135999999996"><g><svg viewBox="0 0 244.43135999999996 117.81621378889565" height="117.81621378889565" width="244.43135999999996"><g transform="matrix(1,0,0,1,0,0)"><svg width="244.43135999999996" viewBox="-0.30000001192092896 -39 81.95000457763672 39.5" height="117.81621378889565" data-palette-color="#35185a"><path d="M26.45-8.55L24.4-13.95 11.05-13.95Q10.2-11.9 9.6-10.33 9-8.75 8.63-7.6 8.25-6.45 8.1-5.65 7.95-4.85 7.95-4.35L7.95-4.35Q7.95-2.95 8.85-2.43 9.75-1.9 11.85-1.9L11.85-1.9 11.85 0-0.3 0-0.3-1.9Q0.85-2.05 1.68-2.3 2.5-2.55 3.13-3 3.75-3.45 4.23-4.17 4.7-4.9 5.15-5.95L5.15-5.95 18.15-38.5 20.3-38.5 31.65-10.3Q32.8-7.5 33.65-5.83 34.5-4.15 35.3-3.3 36.1-2.45 37.02-2.2 37.95-1.95 39.25-1.95L39.25-1.95 39.25 0 22.95 0 22.95-1.95Q25.6-1.95 26.6-2.45 27.6-2.95 27.6-4.1L27.6-4.1Q27.6-4.6 27.55-5.03 27.5-5.45 27.38-5.95 27.25-6.45 27.03-7.08 26.8-7.7 26.45-8.55L26.45-8.55ZM17.9-31.2L12.05-16.45 23.45-16.45 17.9-31.2ZM60.85-39L60.85-39Q65.25-39 69.05-37.45 72.85-35.9 75.65-33.2 78.45-30.5 80.05-26.85 81.65-23.2 81.65-18.95L81.65-18.95Q81.65-14.9 80.02-11.35 78.4-7.8 75.6-5.18 72.8-2.55 69-1.03 65.2 0.5 60.85 0.5L60.85 0.5Q56.5 0.5 52.7-1.03 48.9-2.55 46.1-5.18 43.3-7.8 41.67-11.35 40.05-14.9 40.05-18.95L40.05-18.95Q40.05-23.2 41.65-26.85 43.25-30.5 46.05-33.2 48.85-35.9 52.65-37.45 56.45-39 60.85-39ZM60.85-2.25L60.85-2.25Q64.15-2.25 66.77-3.4 69.4-4.55 71.27-6.7 73.15-8.85 74.15-11.93 75.15-15 75.15-18.8L75.15-18.8Q75.15-22.8 74.15-26.03 73.15-29.25 71.3-31.53 69.45-33.8 66.8-35.02 64.15-36.25 60.85-36.25L60.85-36.25Q57.55-36.25 54.9-35.02 52.25-33.8 50.4-31.53 48.55-29.25 47.55-26.03 46.55-22.8 46.55-18.8L46.55-18.8Q46.55-15 47.55-11.93 48.55-8.85 50.4-6.7 52.25-4.55 54.9-3.4 57.55-2.25 60.85-2.25Z" opacity="1" transform="matrix(1,0,0,1,0,0)" fill="#ffffff" class="undefined-text-0" data-fill-palette-color="primary" id="text-0"></path></svg></g></svg></g></svg></g></svg></g><g></g></svg></g></svg></g></svg></g><path d="M0 58.692L0 1 244.431 1 244.431 58.692 233.807 58.692 233.807 11.625 10.625 11.625 10.625 58.692 0 58.692M0 188.508L0 246.2 244.431 246.2 244.431 188.508 233.807 188.508 233.807 235.575 10.625 235.575 10.625 188.508 0 188.508" fill="#ffffff" stroke="transparent" data-fill-palette-color="primary"></path></svg></g><defs></defs></svg><rect width="244.43135999999996" height="247.2" fill="none" stroke="none" visibility="hidden"></rect></g></svg></g></svg>